<svg xmlns="http://www.w3.org/2000/svg" width="200" height="80" viewBox="0 0 200 80"><rect width="100%" height="100%" fill="#e2e2e2"/><path fill="#222222" d="M46.77 40.32h4.02q1.48 0 2.58-.37t1.83-1.06 1.09-1.68.36-2.21q0-1.16-.36-2.1t-1.08-1.6-1.82-1.01-2.6-.35h-4.02zm-5.38-14.54h9.4q2.9 0 5.02.68t3.5 1.9 2.05 2.92.67 3.72q0 2.1-.7 3.85t-2.1 3.01-3.51 1.96-4.93.7h-4.02V54.7h-5.38zm28.34 9.64.3 2.32q.96-1.84 2.28-2.89t3.12-1.05q1.42 0 2.28.62l-.32 3.7q-.1.36-.29.51t-.51.15q-.3 0-.89-.1t-1.15-.1q-.82 0-1.46.24t-1.15.69-.9 1.09-.73 1.46V54.7h-4.94V34.18h2.9q.76 0 1.06.27t.4.97m21.4 13.98v-3.46q-2.14.1-3.6.37t-2.34.69-1.26.98-.38 1.22q0 1.3.77 1.86t2.01.56q1.52 0 2.63-.55t2.17-1.67M80.69 38.62l-.88-1.58q3.54-3.24 8.52-3.24 1.8 0 3.22.59t2.4 1.64 1.49 2.51.51 3.2V54.7h-2.24q-.7 0-1.08-.21t-.6-.85l-.44-1.48q-.78.7-1.52 1.23t-1.54.89-1.71.55-2.01.19q-1.3 0-2.4-.35t-1.9-1.05-1.24-1.74-.44-2.42q0-.78.26-1.55t.85-1.47 1.53-1.32 2.31-1.08 3.19-.75 4.16-.35v-1.2q0-2.06-.88-3.05t-2.54-.99q-1.2 0-1.99.28t-1.39.63-1.09.63-1.09.28q-.52 0-.88-.27t-.58-.63m24.18-3.54.34 1.62q.62-.62 1.31-1.15t1.46-.9 1.65-.58 1.92-.21q1.68 0 2.98.57t2.17 1.6 1.32 2.46.45 3.15V54.7h-4.94V41.64q0-1.88-.86-2.91t-2.62-1.03q-1.28 0-2.4.58t-2.12 1.58V54.7h-4.94V34.18h3.02q.96 0 1.26.9m31.92 1.32-1.12 1.78q-.2.32-.42.45t-.56.13q-.36 0-.77-.2t-.95-.45-1.23-.45-1.63-.2q-1.46 0-2.29.62t-.83 1.62q0 .66.43 1.11t1.14.79 1.61.61 1.83.59 1.83.73 1.61 1.04 1.14 1.51.43 2.12q0 1.48-.53 2.73t-1.57 2.16-2.57 1.42-3.53.51q-1.06 0-2.07-.19t-1.94-.53-1.72-.8-1.39-1l1.14-1.88q.22-.34.52-.52t.76-.18.87.26.95.56 1.27.56 1.85.26q.88 0 1.51-.21t1.04-.55.6-.79.19-.93q0-.72-.43-1.18t-1.14-.8-1.62-.61-1.86-.59-1.86-.75-1.62-1.09-1.14-1.62-.43-2.32q0-1.26.5-2.4t1.47-1.99 2.42-1.36 3.35-.51q2.12 0 3.86.7t2.9 1.84m8.88-11.42v11.4q1.2-1.12 2.64-1.82t3.38-.7q1.68 0 2.98.57t2.17 1.6 1.32 2.46.45 3.15V54.7h-4.94V41.64q0-1.88-.86-2.91t-2.62-1.03q-1.28 0-2.4.58t-2.12 1.58V54.7h-4.94V24.98z"/></svg>